<?xml version="1.0" encoding="utf-8"?>
<!-- Generator: Adobe Illustrator 24.3.0, SVG Export Plug-In . SVG Version: 6.00 Build 0)  -->
<svg version="1.1" id="Layer_1" xmlns="http://www.w3.org/2000/svg" xmlns:xlink="http://www.w3.org/1999/xlink" x="0px" y="0px"
	 viewBox="0 0 402.706 164.081" style="enable-background:new 0 0 402.706 164.081;" xml:space="preserve">
<style type="text/css">
	.st0{fill:#2FAD6F;}
	.st1{fill:#0A2928;}
	.st2{fill-rule:evenodd;clip-rule:evenodd;fill:#E52521;}
	.st3{fill:#E52521;}
	.st4{fill-rule:evenodd;clip-rule:evenodd;fill:#27316F;}
	.st5{fill-rule:evenodd;clip-rule:evenodd;fill:#FFFFFF;}
	.st6{fill:#FFFFFF;}
	.st7{fill-rule:evenodd;clip-rule:evenodd;fill:#D0043C;}
	.st8{fill-rule:evenodd;clip-rule:evenodd;fill:#004289;}
	.st9{fill:#F8F7F7;}
	.st10{fill:#020203;}
	.st11{fill:#057032;}
	.st12{fill:#E4201B;}
</style>
<path class="st0" d="M137.018,81.194c-4.098-4.012-6.132-8.998-6.132-14.958c0-5.932,2.035-10.918,6.132-14.93
	c4.098-4.012,9.17-6.018,15.274-6.018c5.588,0,10.374,1.69,14.328,5.101s6.247,7.766,6.906,13.038h-9.428
	c-0.602-2.779-1.977-5.043-4.126-6.791c-2.178-1.748-4.728-2.607-7.68-2.607c-3.439,0-6.304,1.175-8.625,3.495
	c-2.321,2.321-3.467,5.244-3.467,8.712c0,3.496,1.146,6.391,3.467,8.711c2.321,2.321,5.187,3.496,8.625,3.496
	c2.952,0,5.502-0.859,7.68-2.607c2.149-1.748,3.525-3.983,4.126-6.763h9.428c-0.659,5.272-2.98,9.6-6.906,13.01
	c-3.955,3.41-8.74,5.13-14.328,5.13C146.188,87.212,141.116,85.206,137.018,81.194z"/>
<path class="st6" d="M204.095,86.495l-2.521-7.106h-16.449l-2.521,7.106h-9.743l15.216-40.491h10.746l15.245,40.491H204.095z
	 M188.076,70.992h10.545l-5.272-14.958L188.076,70.992z"/>
<path class="st6" d="M233.346,46.004c4.041,0,7.422,1.318,10.145,3.926c2.722,2.608,4.069,5.903,4.069,9.858
	c0,3.954-1.348,7.25-4.069,9.857c-2.723,2.607-6.104,3.926-10.145,3.926H227.5v12.924h-9.112V46.004H233.346z M233.116,65.003
	c1.462,0,2.665-0.487,3.64-1.49c0.975-1.003,1.462-2.234,1.462-3.725s-0.487-2.723-1.462-3.726s-2.178-1.49-3.64-1.49H227.5v10.431
	H233.116z"/>
<path class="st6" d="M252.454,86.495V46.004h9.112v40.491H252.454z"/>
<path class="st6" d="M302.914,46.004h11.605v40.491h-9.084V61.565l-10.459,24.931h-6.219l-10.373-24.816v24.816h-9.112V46.004
	h11.749l10.918,26.278L302.914,46.004z"/>
<path class="st6" d="M350.016,86.495l-2.521-7.106h-16.448l-2.522,7.106h-9.743l15.217-40.491h10.746l15.245,40.491H350.016z
	 M333.997,70.992h10.546l-5.273-14.958L333.997,70.992z"/>
<path class="st6" d="M402.221,86.495h-11.147l-9.514-14.013l-9.484,14.013H360.9l14.385-20.374l-14.127-20.117h11.204l9.313,13.727
	l9.227-13.727h11.09l-14.099,20.117L402.221,86.495z"/>
<g>
	<path class="st0" d="M58.599,45.359L55.28,54.04l-0.465,1.221H30.979c-10.951,0-19.861,9.287-19.861,20.687
		c0,11.411,8.911,20.687,19.861,20.687h8.002l-3.319,8.682l-0.169,0.44l-0.296,0.781h-4.217c-16.193,0-29.374-13.721-29.374-30.59
		s13.181-30.59,29.374-30.59H58.599z"/>
</g>
<g>
	<g>
		<polygon class="st6" points="73.443,42.685 68.63,55.262 52.796,96.635 49.012,106.539 48.843,106.979 38.442,106.979 
			38.611,106.539 42.395,96.635 58.229,55.262 62.013,45.359 63.038,42.685 68.662,42.685 		"/>
	</g>
</g>
<g>
	<g>
		<polygon class="st6" points="99.245,24.192 67.575,106.979 57.164,106.979 88.832,24.192 		"/>
	</g>
</g>
<g>
	<g>
		<polygon class="st6" points="126.755,0.706 86.295,106.979 75.894,106.979 116.547,0.706 		"/>
	</g>
</g>
<g>
	<g>
		<polygon class="st2" points="104.167,132.135 104.109,142.013 60.385,141.94 60.385,161.999 50.697,161.999 50.697,141.924 
			7.003,141.852 7.003,131.974 50.697,132.046 50.697,112.038 60.385,112.038 60.385,132.062 104.167,132.135 		"/>
	</g>
	<g>
		<path class="st3" d="M60.493,162.107h-9.904v-20.075l-43.694-0.072v-10.094h0.108l43.586,0.072v-20.009h9.904v20.026l43.782,0.072
			l-0.059,10.094h-0.107l-43.616-0.073V162.107z M50.805,161.89h9.473v-20.059h0.108l43.617,0.073l0.057-9.662l-43.781-0.072
			v-20.024h-9.473v20.009h-0.108L7.11,132.082v9.662l43.694,0.072V161.89z"/>
	</g>
</g>
<g>
	<polygon class="st2" points="7.003,116.037 31.605,128.526 39.28,128.526 7.003,112.038 7.003,116.037 	"/>
</g>
<g>
	<polygon class="st2" points="7.003,161.999 39.322,145.309 46.617,145.309 14.379,161.999 7.003,161.999 	"/>
</g>
<g>
	<polygon class="st2" points="104.173,161.999 71.63,145.222 79.093,145.222 104.172,158.274 104.173,161.999 	"/>
</g>
<g>
	<polygon class="st2" points="96.63,112.038 64.244,128.787 71.834,128.787 104.167,112.038 96.63,112.038 	"/>
</g>
<g>
	<polygon class="st4" points="7.003,117.663 28.527,128.765 7.003,128.765 7.003,117.663 	"/>
</g>
<g>
	<polygon class="st4" points="7.003,156.312 28.527,145.211 7.003,145.211 7.003,156.312 	"/>
</g>
<g>
	<polygon class="st4" points="104.167,117.584 82.643,128.686 104.167,128.686 104.167,117.584 	"/>
</g>
<g>
	<polygon class="st4" points="104.167,156.464 82.643,145.363 104.167,145.363 104.167,156.464 	"/>
</g>
<g>
	<polygon class="st4" points="93.229,112.038 63.711,127.428 63.711,112.038 93.229,112.038 	"/>
</g>
<g>
	<polygon class="st4" points="17.914,112.038 47.433,127.428 47.433,112.038 17.914,112.038 	"/>
</g>
<g>
	<polygon class="st4" points="17.904,161.999 47.422,146.609 47.422,161.999 17.904,161.999 	"/>
</g>
<g>
	<polygon class="st4" points="93.225,161.999 63.707,146.609 63.707,161.999 93.225,161.999 	"/>
</g>
<g>
	<polygon class="st5" points="7.003,131.974 50.697,131.974 50.697,112.038 47.433,112.038 47.433,127.428 17.914,112.038 
		7.003,112.038 39.28,128.526 31.605,128.526 7.003,116.037 7.003,117.663 28.527,128.765 7.003,128.765 7.003,131.974 	"/>
	<path class="st6" d="M50.805,132.082H6.895v-3.426h21.188L6.895,117.729v-1.867l0.157,0.079l24.58,12.478h7.2L6.953,112.134
		l0.049-0.204l10.962,0.013l29.36,15.308v-15.321h3.48V132.082z M7.11,131.866h43.479v-19.72h-3.048v15.46l-0.158-0.082
		l-29.495-15.377H7.451l31.878,16.284l-0.049,0.204l-7.723-0.012L7.11,116.213v1.385l21.466,11.071l-0.049,0.204H7.11V131.866z"/>
</g>
<g>
	<polygon class="st5" points="60.385,112.038 60.385,132.062 104.167,132.135 104.167,128.686 82.643,128.686 104.167,117.584 
		104.167,112.038 71.834,128.787 64.244,128.787 96.63,112.038 93.229,112.038 63.711,127.428 63.711,112.038 60.385,112.038 	"/>
	<path class="st6" d="M104.275,132.243h-0.108l-43.89-0.073v-20.133h0.108l0.002-0.108c0.047,0.001,2.194,0.001,3.323,0.001h0.108
		v15.32l29.41-15.321h3.4l0.05,0.204l-31.991,16.545h7.12l32.467-16.818v5.79l-0.059,0.03l-21.129,10.897h21.188L104.275,132.243z
		 M60.493,131.955l43.566,0.071l0-3.232H82.643l-0.049-0.204l21.466-11.071v-5.304l-32.225,16.68h-7.59l-0.05-0.204l31.991-16.545
		h-2.93l-29.652,15.46v-15.459l-1.555-0.001c-0.893,0-1.335,0-1.555-0.014V131.955z"/>
</g>
<g>
	<polygon class="st5" points="7.003,141.852 50.697,141.852 50.697,161.999 47.422,161.999 47.422,146.609 17.904,161.999 
		14.379,161.999 46.617,145.309 39.322,145.309 7.003,161.999 7.003,156.312 28.527,145.211 7.003,145.211 7.003,141.852 	"/>
	<path class="st6" d="M6.895,162.176v-5.93l0.059-0.03l21.129-10.897H6.895v-3.575h43.91v20.363h-3.491v-15.32l-29.41,15.32H14.38
		l-0.05-0.204l31.844-16.485h-6.825L6.895,162.176z M47.53,161.89h3.059v-19.93H7.11v3.142h21.417l0.049,0.204L7.11,156.377v5.443
		l32.212-16.62h7.295l0.05,0.204L14.823,161.89h3.055l29.652-15.459V161.89z"/>
</g>
<g>
	<polygon class="st5" points="104.104,142.017 60.385,141.94 60.385,161.999 63.707,161.999 63.707,146.609 93.225,161.999 
		104.171,162 71.623,145.222 79.087,145.222 104.167,158.275 104.167,156.464 82.643,145.363 104.092,145.363 104.104,142.017 	"/>
	<path class="st6" d="M104.172,162.109l-10.996-0.015l-29.36-15.308v15.32h-3.538v-20.275h0.108l43.827,0.079l-0.013,3.561H83.088
		l21.188,10.928v2.054L79.061,145.33h-6.992l32.152,16.574L104.172,162.109z M93.252,161.89l10.475,0.002l-32.152-16.574
		l0.049-0.204l7.514,0.013l24.922,12.971v-1.567l-21.466-11.071l0.049-0.204h21.342l0.011-3.129l-43.502-0.077v19.842h3.106v-15.459
		l0.158,0.082L93.252,161.89z"/>
</g>
<rect x="130.886" y="131.225" class="st0" width="271.329" height="11.587"/>
<g>
	<path class="st6" d="M142.748,106.979h-2.034V95.873h7.072v1.702h-5.039v2.871h4.308v1.702h-4.308V106.979z"/>
	<path class="st6" d="M152.445,106.979V95.873h2.034v11.106H152.445z"/>
	<path class="st6" d="M165.795,101.036c0.797,1.135,1.444,2.142,1.942,3.021h0.05c-0.066-1.444-0.1-2.496-0.1-3.154v-5.03h2.034
		v11.106h-2.133l-3.619-5.113c-0.636-0.886-1.295-1.912-1.976-3.08h-0.05c0.066,1.361,0.1,2.416,0.1,3.163v5.03h-2.034V95.873h2.133
		L165.795,101.036z"/>
	<path class="st6" d="M181.609,104.149h-4.183l-1.088,2.83h-2.167l4.408-11.106h1.859l4.408,11.106h-2.15L181.609,104.149z
		 M179.501,98.546c-0.388,1.162-0.735,2.133-1.039,2.913l-0.38,0.988h2.871l-0.38-0.988c-0.301-0.787-0.647-1.758-1.039-2.913
		H179.501z"/>
	<path class="st6" d="M195.084,101.036c0.797,1.135,1.444,2.142,1.942,3.021h0.05c-0.066-1.444-0.1-2.496-0.1-3.154v-5.03h2.034
		v11.106h-2.133l-3.619-5.113c-0.636-0.886-1.295-1.912-1.976-3.08h-0.05c0.066,1.361,0.1,2.416,0.1,3.163v5.03h-2.034V95.873h2.133
		L195.084,101.036z"/>
	<path class="st6" d="M209.944,97.383c-0.554,0-1.064,0.092-1.532,0.273c-0.467,0.184-0.868,0.449-1.203,0.797
		c-0.335,0.35-0.597,0.779-0.784,1.291c-0.188,0.512-0.282,1.098-0.282,1.756c0,0.653,0.086,1.228,0.257,1.723
		c0.172,0.495,0.418,0.908,0.739,1.24c0.32,0.332,0.712,0.583,1.174,0.752c0.463,0.169,0.987,0.253,1.573,0.253
		c0.421,0,0.85-0.033,1.287-0.1c0.437-0.066,0.846-0.163,1.229-0.29v1.751c-0.388,0.11-0.806,0.198-1.254,0.262
		s-0.913,0.095-1.395,0.095c-0.94,0-1.768-0.134-2.481-0.402s-1.311-0.647-1.789-1.137c-0.479-0.49-0.839-1.076-1.079-1.76
		c-0.241-0.684-0.361-1.438-0.361-2.262c0-0.848,0.129-1.633,0.386-2.357c0.258-0.726,0.629-1.354,1.112-1.885
		c0.484-0.531,1.091-0.949,1.818-1.254c0.728-0.304,1.551-0.459,2.47-0.465c0.47,0,0.916,0.032,1.336,0.096
		c0.421,0.063,0.8,0.154,1.138,0.27v1.727c-0.443-0.138-0.855-0.234-1.237-0.29S210.31,97.383,209.944,97.383z"/>
	<path class="st6" d="M217.351,106.979V95.873h2.033v11.106H217.351z"/>
	<path class="st6" d="M231.272,104.149h-4.182l-1.088,2.83h-2.167l4.407-11.106h1.859l4.408,11.106h-2.15L231.272,104.149z
		 M229.164,98.546c-0.389,1.162-0.734,2.133-1.039,2.913l-0.38,0.988h2.871l-0.38-0.988c-0.301-0.787-0.647-1.758-1.039-2.913
		H229.164z"/>
	<path class="st6" d="M240.994,95.873v9.405h5.197v1.701h-7.23V95.873H240.994z"/>
	<path class="st6" d="M262.399,103.999c0.243-0.874,0.545-1.812,0.904-2.813l1.918-5.312h2.855v11.106h-2.033v-5.628
		c0-0.824,0.033-1.782,0.1-2.872h-0.075c-0.094,0.315-0.205,0.67-0.332,1.062s-0.26,0.78-0.398,1.162l-2.3,6.275h-1.311l-2.3-6.275
		c-0.139-0.382-0.271-0.77-0.398-1.162s-0.238-0.747-0.332-1.062h-0.075c0.066,1.023,0.1,1.979,0.1,2.863v5.637h-2.033V95.873h2.839
		l1.917,5.288c0.321,0.879,0.623,1.826,0.905,2.838H262.399z"/>
	<path class="st6" d="M279.964,104.149h-4.182l-1.088,2.83h-2.167l4.407-11.106h1.859l4.408,11.106h-2.15L279.964,104.149z
		 M277.857,98.546c-0.389,1.162-0.734,2.133-1.039,2.913l-0.38,0.988h2.871l-0.38-0.988c-0.301-0.787-0.647-1.758-1.039-2.913
		H277.857z"/>
	<path class="st6" d="M293.439,101.036c0.797,1.135,1.445,2.142,1.943,3.021h0.049c-0.066-1.444-0.1-2.496-0.1-3.154v-5.03h2.034
		v11.106h-2.134l-3.619-5.113c-0.636-0.886-1.295-1.912-1.975-3.08h-0.051c0.066,1.361,0.1,2.416,0.1,3.163v5.03h-2.033V95.873
		h2.133L293.439,101.036z"/>
	<path class="st6" d="M309.253,104.149h-4.182l-1.088,2.83h-2.167l4.407-11.106h1.859l4.408,11.106h-2.15L309.253,104.149z
		 M307.146,98.546c-0.389,1.162-0.734,2.133-1.039,2.913l-0.38,0.988h2.871l-0.38-0.988c-0.301-0.787-0.647-1.758-1.039-2.913
		H307.146z"/>
	<path class="st6" d="M323.849,102.737h-2.49v-1.701h4.523v5.604c-0.166,0.061-0.377,0.124-0.635,0.19
		c-0.257,0.066-0.545,0.126-0.863,0.179s-0.646,0.096-0.983,0.129s-0.673,0.049-1.005,0.049c-0.996,0-1.866-0.134-2.61-0.402
		s-1.364-0.646-1.859-1.133s-0.866-1.066-1.112-1.739c-0.246-0.672-0.369-1.415-0.369-2.229c0-0.575,0.065-1.125,0.195-1.647
		c0.13-0.523,0.32-1.008,0.572-1.453s0.558-0.848,0.918-1.207c0.359-0.36,0.771-0.667,1.232-0.922s0.968-0.449,1.519-0.585
		s1.142-0.204,1.772-0.204c0.559,0,1.09,0.041,1.594,0.121s0.916,0.178,1.236,0.295v1.727c-0.432-0.139-0.867-0.244-1.307-0.316
		c-0.44-0.071-0.885-0.107-1.332-0.107c-0.604,0-1.168,0.09-1.693,0.27c-0.526,0.18-0.981,0.445-1.366,0.797
		s-0.688,0.785-0.909,1.299c-0.221,0.516-0.332,1.11-0.332,1.785c0.006,1.312,0.35,2.295,1.029,2.951
		c0.682,0.655,1.646,0.983,2.897,0.983c0.232,0,0.474-0.013,0.722-0.037c0.25-0.025,0.468-0.057,0.656-0.096V102.737z"/>
	<path class="st6" d="M333.28,105.278h5.463v1.701h-7.496V95.873h7.197v1.702h-5.164v2.871h4.434v1.702h-4.434V105.278z"/>
	<path class="st6" d="M349.485,103.999c0.243-0.874,0.545-1.812,0.904-2.813l1.918-5.312h2.855v11.106h-2.033v-5.628
		c0-0.824,0.033-1.782,0.1-2.872h-0.075c-0.094,0.315-0.205,0.67-0.332,1.062s-0.26,0.78-0.398,1.162l-2.3,6.275h-1.311l-2.3-6.275
		c-0.139-0.382-0.271-0.77-0.398-1.162s-0.238-0.747-0.332-1.062h-0.075c0.066,1.023,0.1,1.979,0.1,2.863v5.637h-2.033V95.873h2.839
		l1.917,5.288c0.321,0.879,0.623,1.826,0.905,2.838H349.485z"/>
	<path class="st6" d="M362.727,105.278h5.463v1.701h-7.496V95.873h7.197v1.702h-5.164v2.871h4.434v1.702h-4.434V105.278z"/>
	<path class="st6" d="M379.007,101.036c0.797,1.135,1.445,2.142,1.943,3.021h0.049c-0.066-1.444-0.1-2.496-0.1-3.154v-5.03h2.034
		v11.106H380.8l-3.619-5.113c-0.636-0.886-1.295-1.912-1.975-3.08h-0.051c0.066,1.361,0.1,2.416,0.1,3.163v5.03h-2.033V95.873h2.133
		L379.007,101.036z"/>
	<path class="st6" d="M393.005,106.979h-2.034v-9.404h-3.586v-1.702h9.197v1.702h-3.577V106.979z"/>
</g>
</svg>
