<svg id="Layer_1" data-name="Layer 1" xmlns="http://www.w3.org/2000/svg" viewBox="0 0 156.71 138.82"><defs><style>.cls-1{fill:#2fad6f;}.cls-2{fill:#fff;}</style></defs><path class="cls-1" d="M73,63.2l-3.71,9.71-.52,1.37H42.15c-12.25,0-22.22,10.39-22.22,23.14s10,23.14,22.22,23.14h9l-3.72,9.71-.19.49-.33.88H42.15C24,131.64,9.29,116.29,9.29,97.42S24,63.2,42.15,63.2Z"/><polygon class="cls-2" points="89.64 60.21 84.26 74.28 66.55 120.56 62.32 131.64 62.13 132.13 50.49 132.13 50.68 131.64 54.91 120.56 72.63 74.28 76.86 63.2 78.01 60.21 84.3 60.21 89.64 60.21"/><polygon class="cls-2" points="118.51 39.52 83.08 132.13 71.44 132.13 106.86 39.52 118.51 39.52"/><polygon class="cls-2" points="149.28 13.25 104.02 132.13 92.39 132.13 137.86 13.25 149.28 13.25"/></svg>